<?xml version="1.0" encoding="utf-8"?>
<!-- Generator: Adobe Illustrator 18.0.0, SVG Export Plug-In . SVG Version: 6.00 Build 0)  -->
<!DOCTYPE svg PUBLIC "-//W3C//DTD SVG 1.1//EN" "http://www.w3.org/Graphics/SVG/1.1/DTD/svg11.dtd">
<svg version="1.1" id="Layer_1" xmlns="http://www.w3.org/2000/svg" xmlns:xlink="http://www.w3.org/1999/xlink" x="0px" y="0px"
	 viewBox="0 0 180 40" enable-background="new 0 0 180 40" xml:space="preserve">
<g>
	<g>
		<path fill="#040000" d="M41.6,9.4c0.3-0.7,0.8-1.4,1.6-1.9c0.9-0.6,2-0.9,3-0.9c2.3,0,3.1,0.8,2.9,2.1c-0.4,2.7-5.2,7.4-8.5,9.9
			c-0.2,0.6-0.5,1.2-0.8,1.9c1.8-1.7,3.9-2.7,5.9-2.7c1.6,0,2.6,0.8,2.3,2.4c-0.5,3.1-4.2,7.2-4.6,9.9c-0.2,1,0.3,1.1,0.8,1.1
			c1.2,0,3-1.9,5.7-5.8c0.3,0,1.3,0.3,1.2,0.5c-2.7,3.9-5.4,7.8-9.2,7.8c-1.6,0-3-0.9-2.7-3c0.6-3.7,4.2-7.4,4.6-9.9
			c0.1-0.4-0.3-0.7-0.8-0.6c-2.1,0.2-6.9,5.8-11.2,13.3H28C32.8,27.2,38.1,19.1,41.6,9.4z M46.1,8.8c-0.7,0-1.6,1.4-4.1,7
			c1.6-1.8,4.2-4.8,4.5-6.6C46.5,8.9,46.3,8.8,46.1,8.8z"/>
		<path fill="#040000" d="M63.2,25.5c0.3,0,1.3,0.3,1.2,0.5c-3,4.4-5.9,7.9-10.5,7.9c-4.1,0-5.3-2.7-4.8-5.9
			c0.7-4.6,5.1-10.2,10.3-10.2c2.3,0,3.3,1.2,3.1,2.8c-0.4,2.4-3.7,5.6-9.3,6.3c0,0.2-0.1,0.3-0.1,0.5c-0.3,2,0.2,3.7,2.4,3.7
			C58.3,31,60.9,28.9,63.2,25.5z M53.6,25.6c3.7-1.3,5.6-3.6,5.8-4.8c0.1-0.5-0.1-0.8-0.6-0.8C56.9,19.9,54.6,22.8,53.6,25.6z"/>
		<path fill="#040000" d="M73.8,25.5c0.2,0,1.1,0.3,1,0.4c0,0,0,0,0,0c-3.6,5.4-6.1,7.9-9.2,7.9c-2.8,0-3.6-2-3.1-5.5
			c0.4-2.5,1.5-5.7,3-9.6c3.4-8.5,7-12.3,9.7-12.3c2.4,0,2.9,1.4,2.6,3.1c-0.3,2-1.6,4.4-2.3,5.4c-2.6,4.4-6.2,7.7-8.4,9.4
			c-0.5,1.5-0.8,2.8-1,3.9c-0.4,2.3,0.2,3,1.3,3C69.1,31.3,71.2,29.2,73.8,25.5z M75.5,8.8c-1.3,0-5.2,7.3-7.5,13.6
			c2.8-3.1,7.1-8.7,7.8-12.8C75.9,9,75.7,8.8,75.5,8.8z"/>
		<path fill="#040000" d="M87.1,25.5c0.3,0,1.3,0.3,1.2,0.5c-3,4.4-5.9,7.9-10.5,7.9c-4.1,0-5.3-2.7-4.8-5.9
			c0.7-4.6,5.1-10.2,10.3-10.2c2.3,0,3.3,1.2,3.1,2.8c-0.4,2.4-3.7,5.6-9.3,6.3c0,0.2-0.1,0.3-0.1,0.5c-0.3,2,0.2,3.7,2.4,3.7
			C82.2,31,84.8,28.9,87.1,25.5z M77.5,25.6c3.7-1.3,5.6-3.6,5.8-4.8c0.1-0.5-0.1-0.8-0.6-0.8C80.7,19.9,78.5,22.8,77.5,25.6z"/>
		<path fill="#040000" d="M83.5,33.6c0,0,0.9-3.1,2.6-5.6c1.5-3.8,2.9-7.2,3.8-9.8h4l-0.9,2.3c1.7-1.6,3.8-2.6,5.7-2.6
			c1.6,0,2.6,0.8,2.3,2.4c-0.5,3.1-4.2,7.2-4.6,9.9c-0.2,1,0.3,1.1,0.8,1.1c1.2,0,3-1.9,5.7-5.8c0.3,0,1.3,0.3,1.2,0.5
			c-2.7,3.9-5.4,7.8-9.2,7.8c-1.6,0-3-0.9-2.7-3c0.6-3.7,4.2-7.4,4.6-9.8c0.1-0.4-0.1-0.7-0.6-0.7c-1.2,0-3.5,1.6-5.7,6.4l-3,7H83.5
			z"/>
		<path fill="#040000" d="M113.5,25.5c0.2,0,1.1,0.3,1,0.4c0,0,0,0,0,0c-3.6,5.4-6.1,7.9-9.2,7.9c-2.8,0-3.6-2-3.1-5.5
			c0.4-2.5,1.5-5.7,3-9.6c3.4-8.5,7-12.3,9.7-12.3c2.4,0,2.9,1.4,2.6,3.1c-0.3,2-1.6,4.4-2.3,5.4c-2.6,4.4-6.2,7.7-8.4,9.4
			c-0.5,1.5-0.8,2.8-1,3.9c-0.4,2.3,0.2,3,1.3,3C108.8,31.3,110.9,29.2,113.5,25.5z M115.2,8.8c-1.3,0-5.2,7.3-7.5,13.6
			c2.8-3.1,7.1-8.7,7.8-12.8C115.7,9,115.5,8.8,115.2,8.8z"/>
		<path fill="#040000" d="M126.8,25.5c0.3,0,1.3,0.3,1.2,0.5c-3,4.4-5.9,7.9-10.5,7.9c-4.1,0-5.3-2.7-4.8-5.9
			c0.7-4.6,5.1-10.2,10.3-10.2c2.3,0,3.3,1.2,3.1,2.8c-0.4,2.4-3.7,5.6-9.3,6.3c0,0.2-0.1,0.3-0.1,0.5c-0.3,2,0.2,3.7,2.4,3.7
			C121.9,31,124.5,28.9,126.8,25.5z M117.2,25.6c3.7-1.3,5.6-3.6,5.8-4.8c0.1-0.5-0.1-0.8-0.6-0.8C120.5,19.9,118.2,22.8,117.2,25.6
			z"/>
		<path fill="#040000" d="M156.3,16.3c7.3,0,10.1,3.3,9.5,6.9c-0.6,4.1-5.8,8.6-14.1,8.6c-4.2,0-7.1-1.4-8.8-3l2.5-1.6
			c1.7,1.9,3.6,2.6,6.6,2.6c6.1,0,9.6-3.3,10.1-6.4c0.4-2.8-1.5-5.4-6.2-5.4c-11.7,0-13.7,15.9-25.1,15.9c-4.1,0-5.3-2.7-4.8-5.9
			c0.7-4.6,5.1-10.2,10.3-10.2c2.3,0,3.3,1.2,3.1,2.8c-0.4,2.4-3.7,5.7-9.4,6.3c-0.2,0.5-0.3,1-0.4,1.5c-0.3,2.1,0.2,3.8,2.3,3.8
			C137.5,32.2,142.4,16.3,156.3,16.3z M130.6,25.6c3.7-1.3,5.6-3.6,5.8-4.8c0.1-0.5-0.1-0.8-0.6-0.8
			C133.9,19.9,131.8,22.7,130.6,25.6z"/>
	</g>
	<circle fill="#040000" cx="30.2" cy="20.8" r="1.7"/>
	<path fill="#040000" d="M16.3,20.9l1.1,1.1c-0.7,1-1.1,2.2-1.1,3.5c0,3.3,2.7,6,6,6c1.3,0,2.5-0.4,3.5-1.1l1.1,1.1
		c-1.3,1-2.8,1.6-4.6,1.6c-4.1,0-7.5-3.4-7.5-7.5C14.8,23.8,15.4,22.2,16.3,20.9z"/>
	<path fill="#040000" d="M17.1,17.7c-2.1,0-3.8,1.7-3.8,3.8s1.7,3.8,3.8,3.8c2.1,0,3.8-1.7,3.8-3.8S19.3,17.7,17.1,17.7z M18.6,21.1
		c-0.5,0-0.9-0.4-0.9-0.9s0.4-0.9,0.9-0.9s0.9,0.4,0.9,0.9S19.1,21.1,18.6,21.1z"/>
</g>
</svg>
